<?xml version="1.0" standalone="no"?>
<!DOCTYPE svg PUBLIC "-//W3C//DTD SVG 20010904//EN"
 "http://www.w3.org/TR/2001/REC-SVG-20010904/DTD/svg10.dtd">
<svg version="1.0" xmlns="http://www.w3.org/2000/svg"
 width="512.000000pt" height="512.000000pt" viewBox="0 0 512.000000 512.000000"
 preserveAspectRatio="xMidYMid meet">

<g transform="translate(0.000000,512.000000) scale(0.100000,-0.100000)"
fill="#E7E7E7" stroke="none">
<path d="M1842 5100 c-105 -28 -166 -64 -253 -150 -83 -82 -137 -177 -158
-278 -7 -36 -11 -329 -11 -919 l0 -865 -87 89 c-152 154 -287 226 -445 239
-154 12 -323 -51 -439 -166 -117 -116 -171 -243 -173 -405 -1 -78 4 -116 21
-170 28 -86 742 -1532 808 -1635 256 -398 601 -686 939 -784 190 -56 227 -58
911 -53 698 5 698 5 902 73 231 77 413 193 588 375 158 163 272 361 339 584
60 198 61 215 61 940 0 612 -1 664 -18 719 -62 199 -207 345 -400 401 -73 21
-217 22 -287 1 -29 -9 -56 -13 -60 -11 -5 3 -12 20 -15 38 -27 121 -164 287
-287 346 -129 61 -271 76 -400 42 l-67 -17 -17 45 c-49 130 -175 263 -299 316
-89 38 -141 49 -240 49 -66 0 -118 -5 -152 -16 l-53 -17 0 374 c0 233 -4 394
-11 427 -21 101 -75 196 -158 278 -88 87 -148 123 -257 150 -96 25 -187 25
-282 0z m215 -375 c45 -19 70 -41 92 -80 14 -27 16 -135 21 -1150 l5 -1120
190 0 190 0 5 510 c5 491 6 511 25 545 64 107 207 130 301 47 72 -62 69 -33
72 -629 l3 -538 184 0 184 0 3 353 c3 305 5 356 20 382 22 40 66 81 101 94 66
25 164 4 209 -46 47 -51 48 -67 48 -528 l0 -435 190 0 190 0 0 228 c0 199 3
232 19 267 55 121 208 148 302 54 21 -21 42 -55 48 -76 7 -25 11 -245 11 -633
0 -486 -3 -612 -15 -689 -60 -369 -310 -685 -650 -822 -187 -75 -172 -74 -900
-74 l-650 0 -90 28 c-179 56 -342 163 -504 334 -193 201 -203 218 -623 1063
-256 515 -382 778 -386 806 -12 110 87 223 199 224 86 0 224 -116 331 -278 78
-120 179 -333 232 -492 27 -80 52 -149 56 -153 4 -5 80 17 169 48 l161 57 0
1290 c0 1245 1 1290 19 1326 23 45 46 66 91 86 45 20 101 20 147 1z"/>
</g>
</svg>
