<svg xmlns="http://www.w3.org/2000/svg" viewBox="0 0 112.043 52.173">
				<g id="Group_3" data-name="Group 3" transform="translate(-79.285 -169.604)">
					<path id="Path_1" data-name="Path 1" d="M398.621,169.787a2.378,2.378,0,0,1,3.245,2.09q.017,18.771,0,37.546a2.35,2.35,0,0,1-3.72,1.789,2.727,2.727,0,0,1-1.017-2.561q.011-18.2,0-36.392A2.592,2.592,0,0,1,398.621,169.787Z" transform="translate(-275.055)" fill="#fff"></path>
					<g id="Group_1" data-name="Group 1" transform="translate(87.54 178.612)">
						<path id="Path_2" data-name="Path 2" d="M146.847,240.161a16.041,16.041,0,0,1,13.041-3.356,16.351,16.351,0,0,1,12.117,22.641,17.245,17.245,0,0,1-6.845,7.621,16.227,16.227,0,0,1-18.543-1.589l-.772-.011c-.111.238-.338.709-.449.943-.074,3.664,0,7.328-.033,10.992a2.375,2.375,0,0,1-3.534,1.975,2.715,2.715,0,0,1-1.21-2.383q.005-11.889,0-23.781A16.7,16.7,0,0,1,146.847,240.161Zm8.23,1.27a11.619,11.619,0,1,0,11.723,5.179c-.523-.954-1.6-1.4-2.094-2.376A11.481,11.481,0,0,0,155.077,241.43Z" transform="translate(-140.615 -236.535)" fill="#fff"></path>
					</g>
					<path id="Path_3" data-name="Path 3" d="M460.728,236.17a16.459,16.459,0,0,1,13.335,2.725,15.555,15.555,0,0,1,5.88,8.278,6.1,6.1,0,0,1-5.776,7.239c-5.58-.015-11.159,0-16.739-.011a2.362,2.362,0,0,1-2.313-2.591,2.439,2.439,0,0,1,2.669-2.164c5.323-.015,10.651.022,15.974-.011a1.426,1.426,0,0,0,1.537-1.567,6.1,6.1,0,0,0-2.665-4.009c-3.9-4.548-11.5-4.663-15.866-.713a11.623,11.623,0,1,0,17.8,14.4,3.378,3.378,0,0,1,1.474-1.544,2.411,2.411,0,0,1,3.07,1.463,2.565,2.565,0,0,1-.412,2.432,16.474,16.474,0,0,1-11.631,8.137c-4.5.876-9.14-.605-12.826-3.189a18.1,18.1,0,0,1-5.516-8.282,16.34,16.34,0,0,1,12-20.6Z" transform="translate(-319.138 -57.254)" fill="#fff"></path>
					<path id="Path_4" data-name="Path 4" d="M679.873,251.453c-1.44-1.581.156-4.087,2.142-3.972,1.132.33,1.849,1.348,2.665,2.127,3.17,3.159,6.322,6.333,9.5,9.481a1.046,1.046,0,0,0,1.593-.152q4.694-4.739,9.455-9.414c.754-.69,1.359-1.7,2.446-1.871,2.027-.509,3.92,2.469,2.2,3.9-3.337,3.341-6.667,6.693-10.031,10.016a2.317,2.317,0,0,0-.772,2.439c3.638,3.616,7.287,7.228,10.881,10.888,1.507,1.366-.1,4.009-1.956,3.831a2.344,2.344,0,0,1-1.756-.872c-3.456-3.493-6.953-6.949-10.428-10.428a1.066,1.066,0,0,0-1.715-.1c-3.3,3.252-6.556,6.549-9.837,9.823-.724.709-1.485,1.73-2.636,1.541-1.778.045-3.181-2.42-1.823-3.764,3.534-3.623,7.15-7.168,10.729-10.747a1.257,1.257,0,0,0,.1-1.919C687.068,258.636,683.415,255.1,679.873,251.453Z" transform="translate(-519.217 -67.391)" fill="#fff"></path>
					<path id="Path_5" data-name="Path 5" d="M92.367,308.692a2.378,2.378,0,0,1,3.174,2.32q0,9.321,0,18.647a2.4,2.4,0,0,1-3.527,1.982,2.828,2.828,0,0,1-1.236-2.736c.019-5.954-.022-11.913.019-17.867A2.462,2.462,0,0,1,92.367,308.692Z" transform="translate(-9.94 -120.22)" fill="#fff"></path>
					<g id="Group_2" data-name="Group 2" transform="translate(79.285 175.975)">
						<path id="Path_6" data-name="Path 6" d="M82.026,217.181a4.082,4.082,0,1,1-2.74,3.868A4.11,4.11,0,0,1,82.026,217.181Z" transform="translate(-79.285 -216.939)" fill="#f9d633"></path>
					</g>
				</g>
			</svg>