<?xml version="1.0" standalone="no"?>
<!DOCTYPE svg PUBLIC "-//W3C//DTD SVG 20010904//EN"
 "http://www.w3.org/TR/2001/REC-SVG-20010904/DTD/svg10.dtd">
<svg version="1.0" xmlns="http://www.w3.org/2000/svg"
 width="512.000000pt" height="512.000000pt" viewBox="0 0 512.000000 512.000000"
 preserveAspectRatio="xMidYMid meet">

<g transform="translate(0.000000,512.000000) scale(0.100000,-0.100000)"
fill="#fff" stroke="none">
<path d="M361 4464 c-169 -45 -301 -180 -346 -351 -13 -49 -15 -189 -15 -933
0 -534 4 -910 10 -965 33 -282 125 -540 277 -775 202 -311 517 -562 867 -691
240 -89 573 -132 721 -94 190 50 330 207 358 401 41 284 -188 544 -479 544
-261 0 -528 150 -670 376 -42 67 -104 216 -104 249 0 13 57 15 418 15 460 0
482 2 593 61 115 62 214 197 239 328 6 33 10 315 10 740 0 577 -2 696 -15 744
-45 173 -178 307 -350 352 -85 22 -1431 21 -1514 -1z"/>
<path d="M3241 4464 c-169 -45 -301 -180 -346 -351 -13 -49 -15 -189 -15 -933
0 -534 4 -910 10 -965 33 -282 125 -540 277 -775 202 -311 517 -562 867 -691
240 -89 573 -132 721 -94 190 50 330 207 358 401 41 284 -188 544 -479 544
-261 0 -528 150 -670 376 -42 67 -104 216 -104 249 0 13 57 15 418 15 460 0
482 2 593 61 115 62 214 197 239 328 6 33 10 315 10 740 0 577 -2 696 -15 744
-45 173 -178 307 -350 352 -85 22 -1431 21 -1514 -1z"/>
</g>
</svg>
