<?xml version="1.0" standalone="no"?>
<!DOCTYPE svg PUBLIC "-//W3C//DTD SVG 20010904//EN"
 "http://www.w3.org/TR/2001/REC-SVG-20010904/DTD/svg10.dtd">
<svg version="1.0" xmlns="http://www.w3.org/2000/svg"
 width="512.000000pt" height="512.000000pt" viewBox="0 0 512.000000 512.000000"
 preserveAspectRatio="xMidYMid meet">

<g transform="translate(0.000000,512.000000) scale(0.100000,-0.100000)"
fill="#ffffff" stroke="none">
<path d="M2852 4451 c-29 -11 -67 -29 -86 -40 -54 -34 -135 -127 -164 -188
-24 -52 -27 -69 -27 -173 0 -192 -16 -170 464 -652 l405 -408 -1404 0 c-854 0
-1428 -4 -1464 -10 -230 -37 -393 -257 -357 -481 30 -185 173 -329 357 -359
36 -6 610 -10 1464 -10 l1404 0 -410 -412 c-370 -372 -413 -419 -437 -474 -74
-169 -41 -357 85 -482 129 -129 319 -160 488 -81 60 28 123 88 862 827 745
745 799 801 828 863 60 129 60 249 0 378 -29 62 -83 118 -823 858 -755 755
-795 794 -862 825 -62 29 -81 33 -170 35 -80 3 -111 -1 -153 -16z"/>
</g>
</svg>
